<svg xmlns="http://www.w3.org/2000/svg" width="445" height="435" fill="none" viewBox="0 0 445 435">
  <g clip-path="url(#a)">
    <path fill="#F2F2F2" d="M161.172 97.512h23.677v202.503c0 3.177.624 6.323 1.836 9.258a24.193 24.193 0 0 0 5.228 7.849 24.115 24.115 0 0 0 7.824 5.245 24.053 24.053 0 0 0 9.23 1.842H389.99v.231c0 3.177-.624 6.324-1.836 9.259a24.199 24.199 0 0 1-5.228 7.849 24.104 24.104 0 0 1-7.824 5.245 24.047 24.047 0 0 1-9.229 1.841H161.172c-3.167 0-6.304-.625-9.23-1.841a24.115 24.115 0 0 1-7.824-5.245 24.215 24.215 0 0 1-5.228-7.849 24.262 24.262 0 0 1-1.836-9.259V121.706a24.232 24.232 0 0 1 7.064-17.108 24.08 24.08 0 0 1 17.054-7.086ZM48.93 419.319a2.048 2.048 0 0 1-1.982-1.259 2.057 2.057 0 0 1 .499-2.299l.14-.559-.056-.135a5.515 5.515 0 0 0-2.034-2.452 5.487 5.487 0 0 0-8.103 2.49c-1.658 4.006-3.77 8.019-4.289 12.255a16.358 16.358 0 0 0 .285 5.609 65.564 65.564 0 0 1-5.929-27.158 63.697 63.697 0 0 1 1.287-12.75 66.24 66.24 0 0 1 13.076-28.035 17.579 17.579 0 0 0 7.299-7.596 13.44 13.44 0 0 0 1.217-3.669c-.356.047-1.34-5.382-1.072-5.715-.495-.753-1.381-1.128-1.922-1.864-2.69-3.657-6.395-3.019-8.33 1.952-4.131 2.092-4.171 5.562-1.636 8.899 1.613 2.123 1.835 4.996 3.25 7.269-.145.187-.297.368-.442.555a66.558 66.558 0 0 0-6.927 11.008 27.76 27.76 0 0 0-1.647-12.855c-1.577-3.815-4.532-7.028-7.134-10.326a5.652 5.652 0 0 0-8.75-.224 5.693 5.693 0 0 0-1.35 3.159c.386.219.764.451 1.134.696a2.784 2.784 0 0 1 1.168 2.918 2.789 2.789 0 0 1-.812 1.43 2.766 2.766 0 0 1-1.475.72l-.057.009c.138 1.397.381 2.782.728 4.143-3.338 12.95 3.87 17.667 14.16 17.879.227.117.448.234.675.345a68.134 68.134 0 0 0-3.646 17.214 64.642 64.642 0 0 0 .047 10.406l-.017-.123a17.044 17.044 0 0 0-5.796-9.834c-4.46-3.675-10.76-5.028-15.572-7.982a3.17 3.17 0 0 0-3.43-.009 3.204 3.204 0 0 0-1.45 3.118l.02.129a18.644 18.644 0 0 1 3.226 1.707 2.784 2.784 0 0 1 1.168 2.918 2.78 2.78 0 0 1-2.287 2.15l-.057.009-.117.017a27.738 27.738 0 0 0 5.085 7.988c2.087 11.305 11.052 12.378 20.642 9.085h.006a68.092 68.092 0 0 0 4.55 13.323h16.25c.058-.182.11-.369.163-.55a18.416 18.416 0 0 1-4.497-.268c1.206-1.485 2.411-2.98 3.617-4.465a.979.979 0 0 0 .076-.087c.611-.76 1.229-1.514 1.84-2.273v-.001a27.212 27.212 0 0 0-.792-6.911v-.001Z"/>
    <path fill="#D9AFB5" d="M227.917 69.965a7.424 7.424 0 0 1-8.482 2.993 7.44 7.44 0 0 1-2.76-1.613L182.89 86.636l-6.514-8.334 40.26-17.867a7.41 7.41 0 0 1 9.86-.261 7.467 7.467 0 0 1 1.421 9.792Z"/>
    <path fill="#2EB894" d="M82.922 79.5 79.57 98.547a6.49 6.49 0 0 0 1.252 5.087 6.455 6.455 0 0 0 4.596 2.49l56.938 4.492 66.928-30.049-7.994-15.222-58.099 18.456-60.27-4.303Z"/>
    <path fill="#F2F2F2" d="M216.181 65.848h204.701c13.32 0 24.118 10.832 24.118 24.194v202.734c0 13.362-10.798 24.194-24.118 24.194H216.181c-13.319 0-24.117-10.832-24.117-24.194V90.042c0-13.362 10.798-24.194 24.117-24.194Z"/>
    <path fill="#fff" d="M420.881 70.824a19.11 19.11 0 0 1 13.547 5.63 19.226 19.226 0 0 1 4.153 6.234 19.267 19.267 0 0 1 1.458 7.355v202.734c0 5.098-2.018 9.986-5.611 13.59a19.13 19.13 0 0 1-13.547 5.629H290.236a92.96 92.96 0 0 1-35.671-7.118 93.198 93.198 0 0 1-30.241-20.27 93.55 93.55 0 0 1-20.206-30.337 93.771 93.771 0 0 1-7.095-35.784V90.043c0-2.524.495-5.023 1.458-7.355a19.226 19.226 0 0 1 4.153-6.235 19.11 19.11 0 0 1 13.547-5.629h204.7Z"/>
    <path fill="#F2F2F2" d="M261.308 132.35h114.895c1.054 0 2.065-.42 2.81-1.168a3.99 3.99 0 0 0 0-5.639 3.966 3.966 0 0 0-2.81-1.168H261.308c-1.054 0-2.065.42-2.81 1.168a3.993 3.993 0 0 0 0 5.639 3.966 3.966 0 0 0 2.81 1.168Zm0 85.038h114.895a3.97 3.97 0 0 0 2.81-1.168 3.995 3.995 0 0 0 0-5.64 3.966 3.966 0 0 0-2.81-1.168H261.308c-1.054 0-2.065.42-2.81 1.168a3.993 3.993 0 0 0 0 5.64 3.97 3.97 0 0 0 2.81 1.168Zm-46.656-42.491h208.207a3.97 3.97 0 0 0 2.811-1.168 3.994 3.994 0 0 0 0-5.639 3.97 3.97 0 0 0-2.811-1.168H214.652c-1.054 0-2.065.42-2.81 1.168a3.993 3.993 0 0 0 0 5.639 3.966 3.966 0 0 0 2.81 1.168Z"/>
    <path fill="#D9AFB5" d="m90.116 163.46 20.741 44.327-79.788-8.106 16.656-42.554 42.391 6.333Zm-18.55 254.779 7.565-.064 3.349-29.954-11.165.095.251 29.923Z"/>
    <path fill="#000" d="M95.798 430.307a3.401 3.401 0 0 1-.971 2.406 3.38 3.38 0 0 1-2.382 1.016l-15.041.126-2.633-5.354-.967 5.381-5.675.052 1.433-19.194 1.974-.132 8.054-.557 2.598-.174.046 5.431 12.082 8.221a3.39 3.39 0 0 1 1.482 2.778Z"/>
    <path fill="#D9AFB5" d="m155.285 418.273 7.212-2.291-5.572-29.619-10.645 3.381 9.005 28.529Z"/>
    <path fill="#000" d="M181.98 422.666a3.404 3.404 0 0 1-2.203 4.259l-14.34 4.554-4.085-4.342.652 5.429-5.41 1.722-4.252-18.769 1.849-.708 7.535-2.906 2.433-.932 1.634 5.177 13.956 4.297a3.39 3.39 0 0 1 2.231 2.219ZM34.703 187.215l72.547 13.335s11.636 8.732 8.523 11.859c-3.113 3.127-3.595 2.643-1.55 4.694 2.045 2.052 6.467 4.794 6.51 6.589.044 1.795 32.508 82.309 32.508 82.309s-3.607-1.809-.902.905c2.706 2.714 2.706 4.956 2.706 4.956l12.625 85.509-20.504 1.211-20.077-77.957-44.782-72.828s-4.444 64.944-4.63 69.264c-.186 4.319-2.892-1.109-.186 4.319 2.705 5.428 4.508 1.809 2.705 5.428-1.804 3.619 6.497 77.289 6.497 77.289H67.978L27.84 251.399s-14.28-43.654 6.864-64.184Z"/>
    <path fill="#2EB894" d="m56.075 65.076 29.06-3.03 7.529 9.807 8.771 4.686a21.926 21.926 0 0 1 8.825 8.68 22.022 22.022 0 0 1 2.731 12.093l-10.25 59.815s8.658 19.557 2.705 24.425c-5.952 4.868 4.603 16.924-8.116 10.856-12.718-6.068-67.634.905-67.634.905l11.723-33.473-8.758-32.89-.963-27.579a23.415 23.415 0 0 1 4.335-14.415 23.292 23.292 0 0 1 12.203-8.768l1.225-.372 6.614-10.74Z"/>
    <path fill="#000" d="M16.067 42.726c-.19 8.217 2.871 16.174 7.269 23.162 1.306-4.08 3.655-7.793 6.105-11.332a35.374 35.374 0 0 0 3.742 22.34c.13.093.263.18.401.258 3.584 2.163 8.129 3.04 12.007 1.477-8.012-8.663-9.032-23.018-2.315-32.735 1.902-2.758 4.361-5.196 5.54-8.334 1.859-5.007.071-10.52-1.056-15.74-1.055-4.858-1.24-10.64 2.01-14.2a3.417 3.417 0 0 0-3.13-1.446c-2.003.284-3.461 2.031-4.39 3.83-.929 1.799-1.541 3.793-2.836 5.347-2.396 2.908-6.478 3.596-9.918 5.129-8.33 3.722-13.229 13.101-13.429 22.244Z"/>
    <path fill="#CCC" d="M230.687 433.924a1.08 1.08 0 0 1-1.073 1.077H1.199a1.075 1.075 0 0 1 0-2.153h228.415a1.062 1.062 0 0 1 .76.314 1.073 1.073 0 0 1 .313.762Z"/>
    <path fill="#2EB894" d="M14.269 233.172c-4.483 0-8.117-3.645-8.117-8.141 0-4.497 3.634-8.142 8.117-8.142 4.482 0 8.116 3.645 8.116 8.142 0 4.496-3.634 8.141-8.116 8.141Z"/>
    <path fill="#000" d="M86.189 38.028c-.476-1.671 2.805 8.546 1.222 8.73-7.212.83-17.111 5.15-22.134 7.166-.226-.026-.452-.052-.672-.085a20.331 20.331 0 0 1-1.583-.244C51.327 51.375 46.83 33.353 46.83 33.189c0-.81 1.938-23.063 4.992-23.392a22.436 22.436 0 0 1 2.414-.132h7.578a35.107 35.107 0 0 1 4.756-.691h.013c15.255-1.166 27.282 8.16 26.158 19.51-.007.013-.02.026-.027.04-.326.487-.612.948-.865 1.39-.246.414-.452.81-.632 1.185-1.39 2.898 2.184 6.545-.186 7.226-3.152.905 8.29 30.662-4.186 30.662 6.069 1.73.657-26.348-.656-30.959Z"/>
    <path fill="#D9AFB5" d="M72.572 55.49c-9.908 0-17.94-8.058-17.94-17.997 0-9.94 8.032-17.997 17.94-17.997 9.908 0 17.94 8.058 17.94 17.997 0 9.94-8.032 17.997-17.94 17.997Z"/>
    <path fill="#000" d="M92.741 29.466c-.3.158-.592.303-.891.448-.313.152-.626.303-.938.441-6.007 2.734-10.897 3.037-13.864-.889a16.684 16.684 0 0 0-1.364-5.994 9.658 9.658 0 0 1-1.583 5.994h-5.974c-6.153 4.097-9.313 4.525-5.042 17.976 1.19 3.748 5.925 25.557 4.062 28.791-.538-.06-6.271-23.947-6.79-24.046-11.695-2.22-19.126-21.548-18.175-22.642a20.205 20.205 0 0 1 2.083-8.964 20.595 20.595 0 0 1 7.81-8.524 36.151 36.151 0 0 1 6.24-2.351l.153-.04c.658-.178 1.33-.342 2.002-.48a36.722 36.722 0 0 1 4.204-.64c.1-.006.2-.013.293-.013a3.16 3.16 0 0 1 1.603.442c.007 0 .007.006.014.006.347.204.65.475.891.797.425.543.655 1.214.652 1.904h6.653c.246 0 .492.006.738.02a17.81 17.81 0 0 1 11.844 5.072 17.918 17.918 0 0 1 5.353 11.75c.02.316.026.626.026.942Z"/>
    <path fill="#000" d="M53.516 23.713c-6.527 0-11.819-5.309-11.819-11.857C41.697 5.308 46.99 0 53.517 0c6.526 0 11.818 5.308 11.818 11.856s-5.291 11.857-11.819 11.857Z"/>
    <path fill="#D9AFB5" d="M14.177 228.388a7.475 7.475 0 0 1 3.352-10.852l-.058-37.183 10.248-2.544-.253 44.162a7.472 7.472 0 0 1-.172 5.29 7.438 7.438 0 0 1-3.631 3.84 7.404 7.404 0 0 1-5.257.452 7.428 7.428 0 0 1-4.229-3.165Z"/>
    <path fill="#2EB894" d="M64.927 91.802 48.979 80.93a6.441 6.441 0 0 0-5.139-.94 6.445 6.445 0 0 0-4.148 3.186l-27.417 50.261-.105 73.558 17.118-1.077 7.027-60.728 28.612-53.388Z"/>
    <path fill="#fff" d="M187.407 258.619h170.439c3.708 0 7.263 1.477 9.884 4.107a14.042 14.042 0 0 1 4.094 9.915 14.04 14.04 0 0 1-4.094 9.915 13.952 13.952 0 0 1-9.884 4.107H187.407a13.952 13.952 0 0 1-9.883-4.107 14.04 14.04 0 0 1-4.094-9.915c0-3.719 1.472-7.285 4.094-9.915a13.952 13.952 0 0 1 9.883-4.107Z"/>
    <path fill="#2EB894" d="M187.406 287.568h170.439c3.946 0 7.731-1.572 10.521-4.372a14.948 14.948 0 0 0 4.359-10.554c0-3.959-1.568-7.756-4.359-10.555a14.852 14.852 0 0 0-10.521-4.372H187.406a14.852 14.852 0 0 0-10.521 4.372 14.949 14.949 0 0 0-4.359 10.555c0 3.958 1.568 7.755 4.359 10.554a14.852 14.852 0 0 0 10.521 4.372Zm170.439-28.044c3.468 0 6.794 1.382 9.246 3.842a13.14 13.14 0 0 1 3.83 9.276c0 3.479-1.378 6.815-3.83 9.275a13.054 13.054 0 0 1-9.246 3.842H187.406a13.054 13.054 0 0 1-9.246-3.842 13.139 13.139 0 0 1-3.83-9.275 13.14 13.14 0 0 1 3.83-9.276 13.054 13.054 0 0 1 9.246-3.842h170.439Zm-180.489 60.289h75.216a3.97 3.97 0 0 0 2.811-1.168 3.994 3.994 0 0 0 0-5.639 3.97 3.97 0 0 0-2.811-1.168h-75.216c-1.054 0-2.065.42-2.81 1.168a3.993 3.993 0 0 0 0 5.639 3.966 3.966 0 0 0 2.81 1.168Z"/>
  </g>
  <defs>
    <clipPath id="a">
      <path fill="#fff" d="M0 0h445v435H0z" transform="matrix(-1 0 0 1 445 0)"/>
    </clipPath>
  </defs>
</svg>
